<?xml version="1.0" encoding="UTF-8" standalone="no"?><!DOCTYPE svg PUBLIC "-//W3C//DTD SVG 1.1//EN" "http://www.w3.org/Graphics/SVG/1.1/DTD/svg11.dtd"><svg id="logo" viewBox="0 0 69 24" version="1.1" xmlns="http://www.w3.org/2000/svg" xmlns:xlink="http://www.w3.org/1999/xlink" xml:space="preserve" xmlns:serif="http://www.serif.com/" style="fill-rule:evenodd;clip-rule:evenodd;stroke-linejoin:round;stroke-miterlimit:2;"><path d="M66.001,23.141l-31.439,0l-0,0.379l31.439,-0l0,-0.379Zm0.273,-8.593l0,1.532l-1.312,-0l-0,2.925c-0,0.593 0.012,0.938 0.038,1.036c0.025,0.098 0.082,0.179 0.17,0.243c0.089,0.064 0.198,0.096 0.325,0.096c0.178,-0 0.435,-0.062 0.773,-0.185l0.164,1.49c-0.447,0.192 -0.953,0.287 -1.518,0.287c-0.346,0 -0.658,-0.058 -0.936,-0.174c-0.278,-0.116 -0.482,-0.267 -0.612,-0.451c-0.13,-0.185 -0.22,-0.434 -0.27,-0.749c-0.041,-0.223 -0.062,-0.674 -0.062,-1.353l0,-3.165l-0.882,-0l0,-1.532l0.882,0l0,-1.442l1.928,-1.121l-0,2.563l1.312,0Zm-11.792,5.189l1.928,-0.294c0.082,0.374 0.249,0.657 0.499,0.851c0.251,0.194 0.602,0.291 1.053,0.291c0.497,-0 0.87,-0.092 1.121,-0.274c0.169,-0.127 0.253,-0.298 0.253,-0.513c-0,-0.145 -0.046,-0.266 -0.137,-0.362c-0.095,-0.091 -0.31,-0.175 -0.642,-0.253c-1.55,-0.342 -2.532,-0.654 -2.947,-0.936c-0.574,-0.392 -0.861,-0.937 -0.861,-1.634c0,-0.629 0.248,-1.158 0.745,-1.586c0.497,-0.428 1.267,-0.643 2.311,-0.643c0.993,0 1.731,0.162 2.215,0.486c0.483,0.323 0.815,0.802 0.998,1.435l-1.812,0.335c-0.077,-0.282 -0.224,-0.499 -0.441,-0.649c-0.216,-0.151 -0.525,-0.226 -0.926,-0.226c-0.506,0 -0.868,0.071 -1.087,0.212c-0.146,0.1 -0.219,0.23 -0.219,0.39c0,0.137 0.064,0.253 0.192,0.348c0.173,0.128 0.771,0.308 1.794,0.54c1.023,0.233 1.738,0.518 2.143,0.855c0.401,0.342 0.602,0.818 0.602,1.429c-0,0.665 -0.278,1.237 -0.834,1.716c-0.556,0.478 -1.379,0.717 -2.468,0.717c-0.989,0 -1.772,-0.2 -2.348,-0.601c-0.577,-0.401 -0.954,-0.946 -1.132,-1.634Zm-44.987,-1.559c0,-1.344 0.374,-2.34 1.121,-2.987c0.625,-0.538 1.386,-0.807 2.283,-0.807c0.998,0 1.814,0.327 2.448,0.981c0.633,0.654 0.95,1.558 0.95,2.711c-0,0.934 -0.14,1.669 -0.421,2.204c-0.28,0.536 -0.688,0.952 -1.223,1.248c-0.536,0.296 -1.12,0.444 -1.754,0.444c-1.016,0 -1.837,-0.326 -2.464,-0.977c-0.627,-0.652 -0.94,-1.591 -0.94,-2.817Zm39.314,-1.415l-1.744,-0.314c0.196,-0.702 0.534,-1.221 1.012,-1.559c0.479,-0.337 1.19,-0.506 2.133,-0.506c0.857,0 1.495,0.102 1.914,0.305c0.419,0.202 0.714,0.46 0.885,0.772c0.171,0.312 0.257,0.885 0.257,1.719l-0.021,2.242c0,0.639 0.031,1.109 0.092,1.412c0.062,0.303 0.177,0.628 0.346,0.974l-1.901,0c-0.05,-0.127 -0.111,-0.317 -0.184,-0.567c-0.032,-0.114 -0.055,-0.189 -0.069,-0.226c-0.328,0.319 -0.679,0.559 -1.052,0.718c-0.374,0.16 -0.773,0.239 -1.197,0.239c-0.747,0 -1.336,-0.203 -1.767,-0.608c-0.43,-0.406 -0.646,-0.918 -0.646,-1.538c0,-0.41 0.098,-0.776 0.294,-1.097c0.196,-0.322 0.471,-0.568 0.824,-0.739c0.353,-0.171 0.862,-0.32 1.528,-0.447c0.897,-0.169 1.52,-0.326 1.866,-0.472l-0,-0.191c-0,-0.37 -0.091,-0.633 -0.274,-0.79c-0.182,-0.157 -0.526,-0.236 -1.032,-0.236c-0.342,0 -0.608,0.067 -0.8,0.202c-0.191,0.134 -0.346,0.37 -0.464,0.707Zm-5.326,5.045l0,-10.021l1.921,-0l0,10.021l-1.921,0Zm-25.744,0l0,-7.26l1.101,0l-0,1.019c0.228,-0.355 0.531,-0.641 0.909,-0.858c0.378,-0.216 0.809,-0.325 1.292,-0.325c0.538,0 0.979,0.112 1.323,0.335c0.344,0.224 0.587,0.536 0.728,0.937c0.574,-0.848 1.321,-1.272 2.242,-1.272c0.72,0 1.274,0.2 1.661,0.599c0.387,0.398 0.581,1.012 0.581,1.842l0,4.983l-1.223,0l-0,-4.573c-0,-0.492 -0.04,-0.847 -0.12,-1.063c-0.08,-0.216 -0.225,-0.391 -0.434,-0.523c-0.21,-0.132 -0.456,-0.198 -0.738,-0.198c-0.511,-0 -0.935,0.17 -1.272,0.509c-0.337,0.34 -0.506,0.883 -0.506,1.63l0,4.218l-1.23,0l-0,-4.717c-0,-0.546 -0.101,-0.957 -0.301,-1.23c-0.201,-0.273 -0.529,-0.41 -0.984,-0.41c-0.347,-0 -0.667,0.091 -0.961,0.273c-0.294,0.183 -0.507,0.449 -0.639,0.8c-0.132,0.351 -0.198,0.857 -0.198,1.518l-0,3.766l-1.231,0Zm16.42,0l0,-10.021l3.247,-0c1.231,-0 2.033,0.05 2.407,0.15c0.574,0.151 1.055,0.478 1.442,0.981c0.387,0.504 0.581,1.154 0.581,1.952c-0,0.615 -0.112,1.132 -0.335,1.552c-0.223,0.419 -0.507,0.748 -0.851,0.987c-0.344,0.24 -0.694,0.398 -1.049,0.475c-0.483,0.096 -1.183,0.144 -2.099,0.144l-1.319,-0l-0,3.78l-2.024,0Zm-34.159,0l0,-10.021l3.452,-0c0.779,-0 1.374,0.048 1.784,0.143c0.575,0.132 1.064,0.372 1.47,0.718c0.529,0.447 0.924,1.017 1.186,1.712c0.262,0.695 0.393,1.49 0.393,2.383c0,0.761 -0.089,1.435 -0.266,2.023c-0.178,0.588 -0.406,1.075 -0.684,1.46c-0.278,0.385 -0.582,0.688 -0.913,0.909c-0.33,0.221 -0.729,0.388 -1.196,0.502c-0.467,0.114 -1.004,0.171 -1.61,0.171l-3.616,0Zm10.76,-3.63c-0,0.93 0.203,1.626 0.608,2.089c0.406,0.462 0.916,0.694 1.531,0.694c0.611,-0 1.119,-0.233 1.525,-0.698c0.405,-0.465 0.608,-1.173 0.608,-2.126c0,-0.897 -0.204,-1.578 -0.612,-2.04c-0.407,-0.463 -0.914,-0.694 -1.521,-0.694c-0.615,-0 -1.125,0.23 -1.531,0.69c-0.405,0.461 -0.608,1.156 -0.608,2.085Zm-9.434,2.448l2.14,-0c0.661,-0 1.179,-0.062 1.555,-0.185c0.376,-0.123 0.676,-0.296 0.899,-0.519c0.314,-0.315 0.559,-0.738 0.735,-1.269c0.175,-0.53 0.263,-1.174 0.263,-1.931c-0,-1.048 -0.172,-1.853 -0.516,-2.416c-0.344,-0.563 -0.762,-0.94 -1.255,-1.132c-0.355,-0.136 -0.927,-0.205 -1.715,-0.205l-2.106,0l0,7.657Zm50.053,-2.304c-0.246,0.082 -0.636,0.18 -1.169,0.294c-0.533,0.114 -0.882,0.225 -1.046,0.335c-0.251,0.178 -0.376,0.403 -0.376,0.677c0,0.268 0.1,0.501 0.301,0.697c0.2,0.196 0.456,0.294 0.765,0.294c0.347,-0 0.677,-0.114 0.992,-0.342c0.232,-0.173 0.385,-0.385 0.458,-0.636c0.05,-0.164 0.075,-0.476 0.075,-0.936l-0,-0.383Zm-22.456,0.478l-0,-1.237l3.78,0l0,1.237l-3.78,0Zm7.26,-5.318l-0,2.844l1.107,-0c0.798,-0 1.331,-0.053 1.6,-0.157c0.269,-0.105 0.479,-0.269 0.632,-0.493c0.153,-0.223 0.229,-0.483 0.229,-0.779c-0,-0.364 -0.107,-0.665 -0.321,-0.902c-0.215,-0.237 -0.486,-0.385 -0.814,-0.445c-0.241,-0.045 -0.727,-0.068 -1.456,-0.068l-0.977,0Zm32.274,-1.891l-15.146,-11.591l-7.692,4.368l-0,-2.487l-2.43,0l-0,3.734l-11.193,6.172l21.315,-6.804l15.146,6.608Zm-4.98,-0.849l-10.172,-2.365l-14.02,2.365l14.02,-1.126l10.172,1.126Zm1.839,-0l-12.011,-5.208l-16.871,5.208l16.871,-2.81l12.011,2.81Z"/></svg>